<?xml version="1.0" encoding="UTF-8"?>
<svg width="120" height="24" viewBox="0 0 120 24" fill="none" xmlns="http://www.w3.org/2000/svg">
  <path d="M16.0074 3.00001L10.0037 21L4 3.00001H0L7.50185 24H12.5056L20 3.00001H16.0074Z" fill="#FF3008"/>
  <path d="M35.0074 3.00001L29.0037 21L23 3.00001H19L26.5019 24H31.5056L39 3.00001H35.0074Z" fill="#FF3008"/>
  <path d="M54.0074 3.00001L48.0037 21L42 3.00001H38L45.5019 24H50.5056L58 3.00001H54.0074Z" fill="#FF3008"/>
  <path d="M73.0074 3.00001L67.0037 21L61 3.00001H57L64.5019 24H69.5056L77 3.00001H73.0074Z" fill="#FF3008"/>
  <path d="M92.0074 3.00001L86.0037 21L80 3.00001H76L83.5019 24H88.5056L96 3.00001H92.0074Z" fill="#FF3008"/>
  <path d="M111.007 3.00001L105.004 21L99 3.00001H95L102.502 24H107.506L115 3.00001H111.007Z" fill="#FF3008"/>
</svg> 