<svg width="24" height="24" viewBox="0 0 24 24" fill="none" xmlns="http://www.w3.org/2000/svg" aria-hidden="true" class="StyledInlineSvg-sc-45a1y2-0 gfYsDE fetched-icon"><path d="M2.46687 7.00544C2.37427 7.00812 2.28439 7.04489 2.20807 7.10002C2.13174 7.15515 2.07223 7.2323 2.03671 7.32216C2.00118 7.41203 1.99117 7.51077 2.00787 7.60648C2.02456 7.70219 2.06726 7.79078 2.13081 7.86156L11.7467 17.9476C11.7713 17.9711 11.8013 17.9875 11.8337 17.9951C11.8661 18.0027 11.8999 18.0014 11.9317 17.9913C11.9634 17.9811 11.9922 17.9624 12.0151 17.9371C12.0379 17.9118 12.0541 17.8807 12.0621 17.8468L12.892 13.7259C12.8987 13.682 12.9206 13.6423 12.9535 13.6143C12.9865 13.5864 13.028 13.5723 13.0703 13.5746L16.4482 13.5631C16.731 13.573 17.0064 13.4663 17.2153 13.2657C17.4242 13.0651 17.5501 12.7865 17.566 12.4897C17.5554 12.233 17.4498 11.9908 17.2718 11.8145C17.0938 11.6383 16.8573 11.5419 16.6127 11.5459L12.9668 11.5574C12.9187 11.5588 12.8708 11.5499 12.826 11.5314C12.7812 11.5128 12.7405 11.4849 12.7062 11.4493L11.1288 9.79233C11.087 9.75146 11.058 9.6982 11.0458 9.63963C11.0335 9.58105 11.0385 9.51994 11.0601 9.46441C11.0817 9.40888 11.1188 9.36157 11.1666 9.32878C11.2144 9.29599 11.2706 9.28716 11.3277 9.28872H16.7642C17.1656 9.28872 17.5631 9.37179 17.934 9.53317C18.3049 9.69455 18.6419 9.93109 18.9258 10.2293C19.2097 10.5275 19.4349 10.8815 19.5885 11.2711C19.7421 11.6607 19.8212 12.0783 19.8212 12.5C19.8212 12.9217 19.7421 13.3393 19.5885 13.7289C19.4349 14.1185 19.2097 14.4725 18.9258 14.7707C18.6419 15.0689 18.3049 15.3054 17.934 15.4668C17.5631 15.6282 17.1656 15.7113 16.7642 15.7113V15.7207H14.6049C14.5161 15.7207 14.4394 15.7857 14.4205 15.8768L14.0309 17.7597C14.0053 17.8832 14.0949 18 14.2152 18H16.9057L16.9062 17.998C17.5453 17.9798 18.1763 17.8387 18.7678 17.5813C19.4031 17.3049 19.9803 16.8998 20.4665 16.3891C20.9526 15.8784 21.3383 15.272 21.6014 14.6048C21.8646 13.9375 22 13.2223 22 12.5C22 11.7777 21.8646 11.0625 21.6014 10.3952C21.3805 9.83496 21.0732 9.31767 20.6925 8.86385L20.6294 8.79C20.5764 8.72908 20.5221 8.66937 20.4665 8.61091C19.9803 8.10019 19.4031 7.69506 18.7678 7.41866C18.2044 7.1735 17.6051 7.03387 16.997 7.00544L16.8032 7.00015C16.7902 7.00005 16.7772 7 16.7642 7L2.46687 7.00544Z" fill="#00838aff"></path></svg>